<svg xmlns="http://www.w3.org/2000/svg" xmlns:xlink="http://www.w3.org/1999/xlink" contentStyleType="text/css" data-diagram-type="CLASS" height="542px" preserveAspectRatio="none" style="width:1957px;height:542px;background:#FFFFFF;" version="1.1" viewBox="0 0 1957 542" width="1957px" zoomAndPan="magnify"><defs/><g><!--class AppointmentStatus--><g class="entity" data-entity="AppointmentStatus" data-source-line="2" data-uid="ent0002" id="entity_AppointmentStatus"><rect fill="#F1F1F1" height="80.9766" rx="2.5" ry="2.5" style="stroke:#181818;stroke-width:0.5;" width="162.2178" x="7" y="429.86"/><ellipse cx="22" cy="445.86" fill="#EB937F" rx="11" ry="11" style="stroke:#181818;stroke-width:1;"/><path d="M25.6143,452.36 L17.8945,452.36 L17.8945,439.9669 L25.6143,439.9669 L25.6143,442.1251 L20.3433,442.1251 L20.3433,444.798 L25.1162,444.798 L25.1162,446.9562 L20.3433,446.9562 L20.3433,450.2018 L25.6143,450.2018 Z " fill="#000000"/><text fill="#000000" font-family="sans-serif" font-size="14" lengthAdjust="spacing" textLength="130.2178" x="36" y="451.151">AppointmentStatus</text><line style="stroke:#181818;stroke-width:0.5;" x1="8" x2="168.2178" y1="461.86" y2="461.86"/><text fill="#000000" font-family="sans-serif" font-size="14" lengthAdjust="spacing" textLength="48.9727" x="13" y="479.3952">ACTIVE</text><text fill="#000000" font-family="sans-serif" font-size="14" lengthAdjust="spacing" textLength="79.9668" x="13" y="495.8834">CANCELLED</text><line style="stroke:#181818;stroke-width:0.5;" x1="8" x2="168.2178" y1="502.8366" y2="502.8366"/></g><!--class User--><g class="entity" data-entity="User" data-source-line="6" data-uid="ent0003" id="entity_User"><rect fill="#F1F1F1" height="139.0625" rx="2.5" ry="2.5" style="stroke:#181818;stroke-width:0.5;" width="170.5459" x="529.84" y="7"/><ellipse cx="587.7878" cy="27.3105" fill="#ADD1B2" rx="11" ry="11" style="stroke:#181818;stroke-width:1;"/><path d="M590.2609,33.4536 Q589.6798,33.7524 589.0407,33.9019 Q588.4015,34.0513 587.696,34.0513 Q585.1891,34.0513 583.8693,32.3994 Q582.5495,30.7476 582.5495,27.6265 Q582.5495,24.4971 583.8693,22.8452 Q585.1891,21.1934 587.696,21.1934 Q588.4015,21.1934 589.049,21.3428 Q589.6964,21.4922 590.2609,21.791 L590.2609,24.5137 Q589.63,23.9326 589.0365,23.6628 Q588.443,23.3931 587.8122,23.3931 Q586.4674,23.3931 585.7826,24.4597 Q585.0978,25.5264 585.0978,27.6265 Q585.0978,29.7183 585.7826,30.7849 Q586.4674,31.8516 587.8122,31.8516 Q588.443,31.8516 589.0365,31.5818 Q589.63,31.312 590.2609,30.731 Z " fill="#000000"/><text fill="#000000" font-family="sans-serif" font-size="12" font-style="italic" lengthAdjust="spacing" textLength="50.1504" x="606.2878" y="23.6016">&#171;record&#187;</text><text fill="#000000" font-family="sans-serif" font-size="14" lengthAdjust="spacing" textLength="30.3652" x="616.1803" y="39.668">User</text><line style="stroke:#181818;stroke-width:0.5;" x1="530.84" x2="699.3859" y1="47.6211" y2="47.6211"/><text fill="#000000" font-family="sans-serif" font-size="14" lengthAdjust="spacing" textLength="62.9111" x="535.84" y="65.1563">+id: long</text><text fill="#000000" font-family="sans-serif" font-size="14" lengthAdjust="spacing" textLength="126.6016" x="535.84" y="81.6445">+username: String</text><text fill="#000000" font-family="sans-serif" font-size="14" lengthAdjust="spacing" textLength="158.5459" x="535.84" y="98.1328">+passwordHash: String</text><text fill="#000000" font-family="sans-serif" font-size="14" lengthAdjust="spacing" textLength="120.832" x="535.84" y="114.6211">+fullName: String</text><text fill="#000000" font-family="sans-serif" font-size="14" lengthAdjust="spacing" textLength="113.4971" x="535.84" y="131.1094">+active: boolean</text><line style="stroke:#181818;stroke-width:0.5;" x1="530.84" x2="699.3859" y1="138.0625" y2="138.0625"/></g><!--class Patient--><g class="entity" data-entity="Patient" data-source-line="13" data-uid="ent0004" id="entity_Patient"><rect fill="#F1F1F1" height="122.5742" rx="2.5" ry="2.5" style="stroke:#181818;stroke-width:0.5;" width="176.2334" x="203.99" y="409.06"/><ellipse cx="264.6179" cy="429.3705" fill="#ADD1B2" rx="11" ry="11" style="stroke:#181818;stroke-width:1;"/><path d="M267.0911,435.5136 Q266.51,435.8124 265.8709,435.9619 Q265.2317,436.1113 264.5261,436.1113 Q262.0193,436.1113 260.6995,434.4594 Q259.3796,432.8076 259.3796,429.6865 Q259.3796,426.5571 260.6995,424.9052 Q262.0193,423.2534 264.5261,423.2534 Q265.2317,423.2534 265.8792,423.4028 Q266.5266,423.5522 267.0911,423.851 L267.0911,426.5737 Q266.4602,425.9926 265.8667,425.7228 Q265.2732,425.4531 264.6423,425.4531 Q263.2976,425.4531 262.6128,426.5197 Q261.928,427.5864 261.928,429.6865 Q261.928,431.7783 262.6128,432.8449 Q263.2976,433.9116 264.6423,433.9116 Q265.2732,433.9116 265.8667,433.6418 Q266.4602,433.372 267.0911,432.791 Z " fill="#000000"/><text fill="#000000" font-family="sans-serif" font-size="12" font-style="italic" lengthAdjust="spacing" textLength="50.1504" x="283.2815" y="425.6616">&#171;record&#187;</text><text fill="#000000" font-family="sans-serif" font-size="14" lengthAdjust="spacing" textLength="46.4775" x="285.1179" y="441.728">Patient</text><line style="stroke:#181818;stroke-width:0.5;" x1="204.99" x2="379.2234" y1="449.6811" y2="449.6811"/><text fill="#000000" font-family="sans-serif" font-size="14" lengthAdjust="spacing" textLength="62.9111" x="209.99" y="467.2163">+id: long</text><text fill="#000000" font-family="sans-serif" font-size="14" lengthAdjust="spacing" textLength="120.832" x="209.99" y="483.7045">+fullName: String</text><text fill="#000000" font-family="sans-serif" font-size="14" lengthAdjust="spacing" textLength="113.1143" x="209.99" y="500.1928">+address: String</text><text fill="#000000" font-family="sans-serif" font-size="14" lengthAdjust="spacing" textLength="164.2334" x="209.99" y="516.6811">+contactNumber: String</text><line style="stroke:#181818;stroke-width:0.5;" x1="204.99" x2="379.2234" y1="523.6342" y2="523.6342"/></g><!--class Dentist--><g class="entity" data-entity="Dentist" data-source-line="19" data-uid="ent0005" id="entity_Dentist"><rect fill="#F1F1F1" height="106.0859" rx="2.5" ry="2.5" style="stroke:#181818;stroke-width:0.5;" width="132.832" x="415.69" y="417.31"/><ellipse cx="454.1805" cy="437.6205" fill="#ADD1B2" rx="11" ry="11" style="stroke:#181818;stroke-width:1;"/><path d="M456.6537,443.7636 Q456.0726,444.0624 455.4335,444.2119 Q454.7943,444.3613 454.0887,444.3613 Q451.5819,444.3613 450.2621,442.7094 Q448.9422,441.0576 448.9422,437.9365 Q448.9422,434.8071 450.2621,433.1552 Q451.5819,431.5034 454.0887,431.5034 Q454.7943,431.5034 455.4418,431.6528 Q456.0892,431.8022 456.6537,432.101 L456.6537,434.8237 Q456.0228,434.2426 455.4293,433.9728 Q454.8358,433.7031 454.2049,433.7031 Q452.8602,433.7031 452.1754,434.7697 Q451.4906,435.8364 451.4906,437.9365 Q451.4906,440.0283 452.1754,441.0949 Q452.8602,442.1616 454.2049,442.1616 Q454.8358,442.1616 455.4293,441.8918 Q456.0228,441.622 456.6537,441.041 Z " fill="#000000"/><text fill="#000000" font-family="sans-serif" font-size="12" font-style="italic" lengthAdjust="spacing" textLength="50.1504" x="472.6409" y="433.9116">&#171;record&#187;</text><text fill="#000000" font-family="sans-serif" font-size="14" lengthAdjust="spacing" textLength="48.6309" x="473.4006" y="449.978">Dentist</text><line style="stroke:#181818;stroke-width:0.5;" x1="416.69" x2="547.522" y1="457.9311" y2="457.9311"/><text fill="#000000" font-family="sans-serif" font-size="14" lengthAdjust="spacing" textLength="62.9111" x="421.69" y="475.4663">+id: long</text><text fill="#000000" font-family="sans-serif" font-size="14" lengthAdjust="spacing" textLength="120.832" x="421.69" y="491.9545">+fullName: String</text><text fill="#000000" font-family="sans-serif" font-size="14" lengthAdjust="spacing" textLength="113.4971" x="421.69" y="508.4428">+active: boolean</text><line style="stroke:#181818;stroke-width:0.5;" x1="416.69" x2="547.522" y1="515.3959" y2="515.3959"/></g><!--class Treatment--><g class="entity" data-entity="Treatment" data-source-line="24" data-uid="ent0006" id="entity_Treatment"><rect fill="#F1F1F1" height="122.5742" rx="2.5" ry="2.5" style="stroke:#181818;stroke-width:0.5;" width="140.7275" x="583.75" y="409.06"/><ellipse cx="616.1128" cy="429.3705" fill="#ADD1B2" rx="11" ry="11" style="stroke:#181818;stroke-width:1;"/><path d="M618.5859,435.5136 Q618.0049,435.8124 617.3657,435.9619 Q616.7266,436.1113 616.021,436.1113 Q613.5142,436.1113 612.1943,434.4594 Q610.8745,432.8076 610.8745,429.6865 Q610.8745,426.5571 612.1943,424.9052 Q613.5142,423.2534 616.021,423.2534 Q616.7266,423.2534 617.374,423.4028 Q618.0215,423.5522 618.5859,423.851 L618.5859,426.5737 Q617.9551,425.9926 617.3616,425.7228 Q616.7681,425.4531 616.1372,425.4531 Q614.7925,425.4531 614.1077,426.5197 Q613.4229,427.5864 613.4229,429.6865 Q613.4229,431.7783 614.1077,432.8449 Q614.7925,433.9116 616.1372,433.9116 Q616.7681,433.9116 617.3616,433.6418 Q617.9551,433.372 618.5859,432.791 Z " fill="#000000"/><text fill="#000000" font-family="sans-serif" font-size="12" font-style="italic" lengthAdjust="spacing" textLength="50.1504" x="643.9678" y="425.6616">&#171;record&#187;</text><text fill="#000000" font-family="sans-serif" font-size="14" lengthAdjust="spacing" textLength="70.1436" x="633.9712" y="441.728">Treatment</text><line style="stroke:#181818;stroke-width:0.5;" x1="584.75" x2="723.4775" y1="449.6811" y2="449.6811"/><text fill="#000000" font-family="sans-serif" font-size="14" lengthAdjust="spacing" textLength="62.9111" x="589.75" y="467.2163">+id: long</text><text fill="#000000" font-family="sans-serif" font-size="14" lengthAdjust="spacing" textLength="97.248" x="589.75" y="483.7045">+name: String</text><text fill="#000000" font-family="sans-serif" font-size="14" lengthAdjust="spacing" textLength="128.7275" x="589.75" y="500.1928">+price: BigDecimal</text><text fill="#000000" font-family="sans-serif" font-size="14" lengthAdjust="spacing" textLength="113.4971" x="589.75" y="516.6811">+active: boolean</text><line style="stroke:#181818;stroke-width:0.5;" x1="584.75" x2="723.4775" y1="523.6342" y2="523.6342"/></g><!--class Appointment--><g class="entity" data-entity="Appointment" data-source-line="30" data-uid="ent0007" id="entity_Appointment"><rect fill="#F1F1F1" height="139.0625" rx="2.5" ry="2.5" style="stroke:#181818;stroke-width:0.5;" width="213.1201" x="280.55" y="206.07"/><ellipse cx="338.5358" cy="226.3805" fill="#ADD1B2" rx="11" ry="11" style="stroke:#181818;stroke-width:1;"/><path d="M341.009,232.5236 Q340.4279,232.8224 339.7888,232.9719 Q339.1496,233.1213 338.444,233.1213 Q335.9372,233.1213 334.6174,231.4694 Q333.2976,229.8176 333.2976,226.6965 Q333.2976,223.5671 334.6174,221.9152 Q335.9372,220.2634 338.444,220.2634 Q339.1496,220.2634 339.7971,220.4128 Q340.4445,220.5622 341.009,220.861 L341.009,223.5837 Q340.3781,223.0026 339.7846,222.7328 Q339.1911,222.4631 338.5603,222.4631 Q337.2155,222.4631 336.5307,223.5297 Q335.8459,224.5964 335.8459,226.6965 Q335.8459,228.7883 336.5307,229.8549 Q337.2155,230.9216 338.5603,230.9216 Q339.1911,230.9216 339.7846,230.6518 Q340.3781,230.382 341.009,229.801 Z " fill="#000000"/><text fill="#000000" font-family="sans-serif" font-size="12" font-style="italic" lengthAdjust="spacing" textLength="50.1504" x="378.2849" y="222.6716">&#171;record&#187;</text><text fill="#000000" font-family="sans-serif" font-size="14" lengthAdjust="spacing" textLength="88.6484" x="359.0358" y="238.738">Appointment</text><line style="stroke:#181818;stroke-width:0.5;" x1="281.55" x2="492.6701" y1="246.6911" y2="246.6911"/><text fill="#000000" font-family="sans-serif" font-size="14" lengthAdjust="spacing" textLength="62.9111" x="286.55" y="264.2263">+id: long</text><text fill="#000000" font-family="sans-serif" font-size="14" lengthAdjust="spacing" textLength="201.1201" x="286.55" y="280.7145">+appointmentNumber: String</text><text fill="#000000" font-family="sans-serif" font-size="14" lengthAdjust="spacing" textLength="115.835" x="286.55" y="297.2028">+date: LocalDate</text><text fill="#000000" font-family="sans-serif" font-size="14" lengthAdjust="spacing" textLength="118.9248" x="286.55" y="313.6911">+time: LocalTime</text><text fill="#000000" font-family="sans-serif" font-size="14" lengthAdjust="spacing" textLength="191.3721" x="286.55" y="330.1794">+status: AppointmentStatus</text><line style="stroke:#181818;stroke-width:0.5;" x1="281.55" x2="492.6701" y1="337.1325" y2="337.1325"/></g><!--class Bill--><g class="entity" data-entity="Bill" data-source-line="37" data-uid="ent0008" id="entity_Bill"><rect fill="#F1F1F1" height="139.0625" rx="2.5" ry="2.5" style="stroke:#181818;stroke-width:0.5;" width="215.2461" x="279.49" y="7"/><ellipse cx="359.7879" cy="27.3105" fill="#ADD1B2" rx="11" ry="11" style="stroke:#181818;stroke-width:1;"/><path d="M362.261,33.4536 Q361.6799,33.7524 361.0408,33.9019 Q360.4016,34.0513 359.6961,34.0513 Q357.1892,34.0513 355.8694,32.3994 Q354.5496,30.7476 354.5496,27.6265 Q354.5496,24.4971 355.8694,22.8452 Q357.1892,21.1934 359.6961,21.1934 Q360.4016,21.1934 361.0491,21.3428 Q361.6965,21.4922 362.261,21.791 L362.261,24.5137 Q361.6301,23.9326 361.0366,23.6628 Q360.4431,23.3931 359.8123,23.3931 Q358.4675,23.3931 357.7827,24.4597 Q357.0979,25.5264 357.0979,27.6265 Q357.0979,29.7183 357.7827,30.7849 Q358.4675,31.8516 359.8123,31.8516 Q360.4431,31.8516 361.0366,31.5818 Q361.6301,31.312 362.261,30.731 Z " fill="#000000"/><text fill="#000000" font-family="sans-serif" font-size="12" font-style="italic" lengthAdjust="spacing" textLength="50.1504" x="378.2879" y="23.6016">&#171;record&#187;</text><text fill="#000000" font-family="sans-serif" font-size="14" lengthAdjust="spacing" textLength="20.1934" x="393.2664" y="39.668">Bill</text><line style="stroke:#181818;stroke-width:0.5;" x1="280.49" x2="493.7361" y1="47.6211" y2="47.6211"/><text fill="#000000" font-family="sans-serif" font-size="14" lengthAdjust="spacing" textLength="62.9111" x="285.49" y="65.1563">+id: long</text><text fill="#000000" font-family="sans-serif" font-size="14" lengthAdjust="spacing" textLength="135.3516" x="285.49" y="81.6445">+billNumber: String</text><text fill="#000000" font-family="sans-serif" font-size="14" lengthAdjust="spacing" textLength="149.6182" x="285.49" y="98.1328">+appointmentId: long</text><text fill="#000000" font-family="sans-serif" font-size="14" lengthAdjust="spacing" textLength="179.9629" x="285.49" y="114.6211">+totalAmount: BigDecimal</text><text fill="#000000" font-family="sans-serif" font-size="14" lengthAdjust="spacing" textLength="203.2461" x="285.49" y="131.1094">+generatedAt: LocalDateTime</text><line style="stroke:#181818;stroke-width:0.5;" x1="280.49" x2="493.7361" y1="138.0625" y2="138.0625"/></g><!--class AuthenticationService--><g class="entity" data-entity="AuthenticationService" data-source-line="44" data-uid="ent0009" id="entity_AuthenticationService"><rect fill="#F1F1F1" height="64.4883" rx="2.5" ry="2.5" style="stroke:#181818;stroke-width:0.5;" width="295.7598" x="735.23" y="44.29"/><ellipse cx="805.4351" cy="60.29" fill="#ADD1B2" rx="11" ry="11" style="stroke:#181818;stroke-width:1;"/><path d="M807.9082,66.4331 Q807.3272,66.7319 806.688,66.8813 Q806.0488,67.0307 805.3433,67.0307 Q802.8364,67.0307 801.5166,65.3789 Q800.1968,63.727 800.1968,60.6059 Q800.1968,57.4765 801.5166,55.8247 Q802.8364,54.1728 805.3433,54.1728 Q806.0488,54.1728 806.6963,54.3222 Q807.3438,54.4716 807.9082,54.7705 L807.9082,57.4931 Q807.2774,56.9121 806.6839,56.6423 Q806.0904,56.3725 805.4595,56.3725 Q804.1148,56.3725 803.43,57.4392 Q802.7451,58.5058 802.7451,60.6059 Q802.7451,62.6977 803.43,63.7644 Q804.1148,64.831 805.4595,64.831 Q806.0904,64.831 806.6839,64.5612 Q807.2774,64.2915 807.9082,63.7104 Z " fill="#000000"/><text fill="#000000" font-family="sans-serif" font-size="14" lengthAdjust="spacing" textLength="146.8496" x="825.9351" y="65.581">AuthenticationService</text><line style="stroke:#181818;stroke-width:0.5;" x1="736.23" x2="1029.9898" y1="76.29" y2="76.29"/><line style="stroke:#181818;stroke-width:0.5;" x1="736.23" x2="1029.9898" y1="84.29" y2="84.29"/><text fill="#000000" font-family="sans-serif" font-size="14" lengthAdjust="spacing" textLength="283.7598" x="741.23" y="101.8252">+authenticate(username, password): User</text></g><!--class AppointmentService--><g class="entity" data-entity="AppointmentService" data-source-line="47" data-uid="ent0010" id="entity_AppointmentService"><rect fill="#F1F1F1" height="130.4414" rx="2.5" ry="2.5" style="stroke:#181818;stroke-width:0.5;" width="289.6689" x="1056.27" y="210.38"/><ellipse cx="1128.8642" cy="226.38" fill="#ADD1B2" rx="11" ry="11" style="stroke:#181818;stroke-width:1;"/><path d="M1131.3374,232.5231 Q1130.7563,232.8219 1130.1172,232.9713 Q1129.478,233.1207 1128.7724,233.1207 Q1126.2656,233.1207 1124.9458,231.4689 Q1123.626,229.817 1123.626,226.6959 Q1123.626,223.5665 1124.9458,221.9147 Q1126.2656,220.2628 1128.7724,220.2628 Q1129.478,220.2628 1130.1255,220.4122 Q1130.7729,220.5616 1131.3374,220.8605 L1131.3374,223.5831 Q1130.7065,223.0021 1130.113,222.7323 Q1129.5195,222.4625 1128.8887,222.4625 Q1127.5439,222.4625 1126.8591,223.5292 Q1126.1743,224.5958 1126.1743,226.6959 Q1126.1743,228.7877 1126.8591,229.8544 Q1127.5439,230.921 1128.8887,230.921 Q1129.5195,230.921 1130.113,230.6512 Q1130.7065,230.3815 1131.3374,229.8004 Z " fill="#000000"/><text fill="#000000" font-family="sans-serif" font-size="14" lengthAdjust="spacing" textLength="135.9805" x="1149.3642" y="231.671">AppointmentService</text><line style="stroke:#181818;stroke-width:0.5;" x1="1057.27" x2="1344.9389" y1="242.38" y2="242.38"/><line style="stroke:#181818;stroke-width:0.5;" x1="1057.27" x2="1344.9389" y1="250.38" y2="250.38"/><text fill="#000000" font-family="sans-serif" font-size="14" lengthAdjust="spacing" textLength="210.4102" x="1062.27" y="267.9152">+create(request): Appointment</text><text fill="#000000" font-family="sans-serif" font-size="14" lengthAdjust="spacing" textLength="192.2949" x="1062.27" y="284.4034">+get(number): Appointment</text><text fill="#000000" font-family="sans-serif" font-size="14" lengthAdjust="spacing" textLength="277.6689" x="1062.27" y="300.8917">+update(number, request): Appointment</text><text fill="#000000" font-family="sans-serif" font-size="14" lengthAdjust="spacing" textLength="153.1934" x="1062.27" y="317.38">+cancel(number): void</text><text fill="#000000" font-family="sans-serif" font-size="14" lengthAdjust="spacing" textLength="171.6846" x="1062.27" y="333.8683">+list(date, dentistId): List</text></g><!--class BillingService--><g class="entity" data-entity="BillingService" data-source-line="54" data-uid="ent0011" id="entity_BillingService"><rect fill="#F1F1F1" height="97.4648" rx="2.5" ry="2.5" style="stroke:#181818;stroke-width:0.5;" width="248.0244" x="1231.1" y="27.8"/><ellipse cx="1306.3671" cy="43.8" fill="#ADD1B2" rx="11" ry="11" style="stroke:#181818;stroke-width:1;"/><path d="M1308.8402,49.9431 Q1308.2592,50.2419 1307.62,50.3913 Q1306.9809,50.5407 1306.2753,50.5407 Q1303.7685,50.5407 1302.4486,48.8889 Q1301.1288,47.237 1301.1288,44.1159 Q1301.1288,40.9865 1302.4486,39.3347 Q1303.7685,37.6828 1306.2753,37.6828 Q1306.9809,37.6828 1307.6283,37.8322 Q1308.2758,37.9816 1308.8402,38.2805 L1308.8402,41.0031 Q1308.2094,40.4221 1307.6159,40.1523 Q1307.0224,39.8825 1306.3915,39.8825 Q1305.0468,39.8825 1304.362,40.9492 Q1303.6771,42.0158 1303.6771,44.1159 Q1303.6771,46.2077 1304.362,47.2744 Q1305.0468,48.341 1306.3915,48.341 Q1307.0224,48.341 1307.6159,48.0712 Q1308.2094,47.8015 1308.8402,47.2204 Z " fill="#000000"/><text fill="#000000" font-family="sans-serif" font-size="14" lengthAdjust="spacing" textLength="88.9902" x="1326.8671" y="49.091">BillingService</text><line style="stroke:#181818;stroke-width:0.5;" x1="1232.1" x2="1478.1244" y1="59.8" y2="59.8"/><line style="stroke:#181818;stroke-width:0.5;" x1="1232.1" x2="1478.1244" y1="67.8" y2="67.8"/><text fill="#000000" font-family="sans-serif" font-size="14" lengthAdjust="spacing" textLength="226.9053" x="1237.1" y="85.3352">+preview(number): BillingPreview</text><text fill="#000000" font-family="sans-serif" font-size="14" lengthAdjust="spacing" textLength="236.0244" x="1237.1" y="101.8234">+generate(number): BillGeneration</text><text fill="#000000" font-family="sans-serif" font-size="14" lengthAdjust="spacing" textLength="173.5576" x="1237.1" y="118.3117">+get(number): BillReceipt</text></g><!--class ReportService--><g class="entity" data-entity="ReportService" data-source-line="59" data-uid="ent0012" id="entity_ReportService"><rect fill="#F1F1F1" height="130.4414" rx="2.5" ry="2.5" style="stroke:#181818;stroke-width:0.5;" width="240.7031" x="1690.76" y="11.31"/><ellipse cx="1760.6814" cy="27.31" fill="#ADD1B2" rx="11" ry="11" style="stroke:#181818;stroke-width:1;"/><path d="M1763.1545,33.4531 Q1762.5735,33.7519 1761.9343,33.9013 Q1761.2952,34.0507 1760.5896,34.0507 Q1758.0828,34.0507 1756.7629,32.3989 Q1755.4431,30.747 1755.4431,27.6259 Q1755.4431,24.4965 1756.7629,22.8447 Q1758.0828,21.1928 1760.5896,21.1928 Q1761.2952,21.1928 1761.9426,21.3422 Q1762.5901,21.4916 1763.1545,21.7905 L1763.1545,24.5131 Q1762.5237,23.9321 1761.9302,23.6623 Q1761.3367,23.3925 1760.7058,23.3925 Q1759.3611,23.3925 1758.6763,24.4592 Q1757.9914,25.5258 1757.9914,27.6259 Q1757.9914,29.7177 1758.6763,30.7844 Q1759.3611,31.851 1760.7058,31.851 Q1761.3367,31.851 1761.9302,31.5812 Q1762.5237,31.3115 1763.1545,30.7304 Z " fill="#000000"/><text fill="#000000" font-family="sans-serif" font-size="14" lengthAdjust="spacing" textLength="92.3604" x="1781.1814" y="32.601">ReportService</text><line style="stroke:#181818;stroke-width:0.5;" x1="1691.76" x2="1930.4631" y1="43.31" y2="43.31"/><line style="stroke:#181818;stroke-width:0.5;" x1="1691.76" x2="1930.4631" y1="51.31" y2="51.31"/><text fill="#000000" font-family="sans-serif" font-size="14" lengthAdjust="spacing" textLength="114.5088" x="1696.76" y="68.8452">+daily(date): List</text><text fill="#000000" font-family="sans-serif" font-size="14" lengthAdjust="spacing" textLength="107.0713" x="1696.76" y="85.3334">+dentists(): List</text><text fill="#000000" font-family="sans-serif" font-size="14" lengthAdjust="spacing" textLength="126.6426" x="1696.76" y="101.8217">+treatments(): List</text><text fill="#000000" font-family="sans-serif" font-size="14" lengthAdjust="spacing" textLength="106.7295" x="1696.76" y="118.31">+revenue(): List</text><text fill="#000000" font-family="sans-serif" font-size="14" lengthAdjust="spacing" textLength="228.7031" x="1696.76" y="134.7983">+summary(): DashboardSummary</text></g><!--class UserDao--><g class="entity" data-entity="UserDao" data-source-line="66" data-uid="ent0013" id="entity_UserDao"><rect fill="#F1F1F1" height="64.4883" rx="2.5" ry="2.5" style="stroke:#181818;stroke-width:0.5;" width="275.4912" x="745.36" y="243.35"/><ellipse cx="850.2643" cy="259.35" fill="#B4A7E5" rx="11" ry="11" style="stroke:#181818;stroke-width:1;"/><path d="M846.692,255.6151 L846.692,253.4569 L854.0714,253.4569 L854.0714,255.6151 L851.6061,255.6151 L851.6061,263.6918 L854.0714,263.6918 L854.0714,265.85 L846.692,265.85 L846.692,263.6918 L849.1574,263.6918 L849.1574,255.6151 Z " fill="#000000"/><text fill="#000000" font-family="sans-serif" font-size="14" font-style="italic" lengthAdjust="spacing" textLength="57.1826" x="870.7643" y="264.641">UserDao</text><line style="stroke:#181818;stroke-width:0.5;" x1="746.36" x2="1019.8512" y1="275.35" y2="275.35"/><line style="stroke:#181818;stroke-width:0.5;" x1="746.36" x2="1019.8512" y1="283.35" y2="283.35"/><text fill="#000000" font-family="sans-serif" font-size="14" lengthAdjust="spacing" textLength="263.4912" x="751.36" y="300.8852">+findByUsername(username): Optional</text></g><!--class AppointmentDao--><g class="entity" data-entity="AppointmentDao" data-source-line="69" data-uid="ent0014" id="entity_AppointmentDao"><rect fill="#F1F1F1" height="130.4414" rx="2.5" ry="2.5" style="stroke:#181818;stroke-width:0.5;" width="398.1895" x="881.01" y="405.13"/><ellipse cx="1018.1218" cy="421.13" fill="#B4A7E5" rx="11" ry="11" style="stroke:#181818;stroke-width:1;"/><path d="M1014.5496,417.3951 L1014.5496,415.2369 L1021.9289,415.2369 L1021.9289,417.3951 L1019.4636,417.3951 L1019.4636,425.4718 L1021.9289,425.4718 L1021.9289,427.63 L1014.5496,427.63 L1014.5496,425.4718 L1017.0149,425.4718 L1017.0149,417.3951 Z " fill="#000000"/><text fill="#000000" font-family="sans-serif" font-size="14" font-style="italic" lengthAdjust="spacing" textLength="115.4658" x="1038.6218" y="426.421">AppointmentDao</text><line style="stroke:#181818;stroke-width:0.5;" x1="882.01" x2="1278.1995" y1="437.13" y2="437.13"/><line style="stroke:#181818;stroke-width:0.5;" x1="882.01" x2="1278.1995" y1="445.13" y2="445.13"/><text fill="#000000" font-family="sans-serif" font-size="14" lengthAdjust="spacing" textLength="236.4209" x="887.01" y="462.6652">+findByNumber(number): Optional</text><text fill="#000000" font-family="sans-serif" font-size="14" lengthAdjust="spacing" textLength="386.1895" x="887.01" y="479.1534">+hasActiveSlot(dentistId, date, time, excluding): boolean</text><text fill="#000000" font-family="sans-serif" font-size="14" lengthAdjust="spacing" textLength="234.377" x="887.01" y="495.6417">+save(appointment): Appointment</text><text fill="#000000" font-family="sans-serif" font-size="14" lengthAdjust="spacing" textLength="251.542" x="887.01" y="512.13">+update(appointment): Appointment</text><text fill="#000000" font-family="sans-serif" font-size="14" lengthAdjust="spacing" textLength="153.1934" x="887.01" y="528.6183">+cancel(number): void</text></g><!--class CatalogDao--><g class="entity" data-entity="CatalogDao" data-source-line="76" data-uid="ent0015" id="entity_CatalogDao"><rect fill="#F1F1F1" height="113.9531" rx="2.5" ry="2.5" style="stroke:#181818;stroke-width:0.5;" width="210.1123" x="1314.05" y="413.37"/><ellipse cx="1375.5666" cy="429.37" fill="#B4A7E5" rx="11" ry="11" style="stroke:#181818;stroke-width:1;"/><path d="M1371.9943,425.6351 L1371.9943,423.4769 L1379.3737,423.4769 L1379.3737,425.6351 L1376.9084,425.6351 L1376.9084,433.7118 L1379.3737,433.7118 L1379.3737,435.87 L1371.9943,435.87 L1371.9943,433.7118 L1374.4597,433.7118 L1374.4597,425.6351 Z " fill="#000000"/><text fill="#000000" font-family="sans-serif" font-size="14" font-style="italic" lengthAdjust="spacing" textLength="78.5791" x="1396.0666" y="434.661">CatalogDao</text><line style="stroke:#181818;stroke-width:0.5;" x1="1315.05" x2="1523.1623" y1="445.37" y2="445.37"/><line style="stroke:#181818;stroke-width:0.5;" x1="1315.05" x2="1523.1623" y1="453.37" y2="453.37"/><text fill="#000000" font-family="sans-serif" font-size="14" lengthAdjust="spacing" textLength="175.3145" x="1320.05" y="470.9052">+findDentist(id): Optional</text><text fill="#000000" font-family="sans-serif" font-size="14" lengthAdjust="spacing" textLength="196.8271" x="1320.05" y="487.3934">+findTreatment(id): Optional</text><text fill="#000000" font-family="sans-serif" font-size="14" lengthAdjust="spacing" textLength="176.5996" x="1320.05" y="503.8817">+findActiveDentists(): List</text><text fill="#000000" font-family="sans-serif" font-size="14" lengthAdjust="spacing" textLength="198.1123" x="1320.05" y="520.37">+findActiveTreatments(): List</text></g><!--class BillDao--><g class="entity" data-entity="BillDao" data-source-line="82" data-uid="ent0016" id="entity_BillDao"><rect fill="#F1F1F1" height="80.9766" rx="2.5" ry="2.5" style="stroke:#181818;stroke-width:0.5;" width="255.5439" x="1381.34" y="235.11"/><ellipse cx="1481.3566" cy="251.11" fill="#B4A7E5" rx="11" ry="11" style="stroke:#181818;stroke-width:1;"/><path d="M1477.7843,247.3751 L1477.7843,245.2169 L1485.1637,245.2169 L1485.1637,247.3751 L1482.6984,247.3751 L1482.6984,255.4518 L1485.1637,255.4518 L1485.1637,257.61 L1477.7843,257.61 L1477.7843,255.4518 L1480.2497,255.4518 L1480.2497,247.3751 Z " fill="#000000"/><text fill="#000000" font-family="sans-serif" font-size="14" font-style="italic" lengthAdjust="spacing" textLength="47.0107" x="1501.8566" y="256.401">BillDao</text><line style="stroke:#181818;stroke-width:0.5;" x1="1382.34" x2="1635.8839" y1="267.11" y2="267.11"/><line style="stroke:#181818;stroke-width:0.5;" x1="1382.34" x2="1635.8839" y1="275.11" y2="275.11"/><text fill="#000000" font-family="sans-serif" font-size="14" lengthAdjust="spacing" textLength="243.5439" x="1387.34" y="292.6452">+findByAppointmentId(id): Optional</text><text fill="#000000" font-family="sans-serif" font-size="14" lengthAdjust="spacing" textLength="100.1533" x="1387.34" y="309.1334">+save(bill): Bill</text></g><!--class ReportDao--><g class="entity" data-entity="ReportDao" data-source-line="86" data-uid="ent0017" id="entity_ReportDao"><rect fill="#F1F1F1" height="130.4414" rx="2.5" ry="2.5" style="stroke:#181818;stroke-width:0.5;" width="278.3965" x="1671.91" y="210.38"/><ellipse cx="1770.9354" cy="226.38" fill="#B4A7E5" rx="11" ry="11" style="stroke:#181818;stroke-width:1;"/><path d="M1767.3631,222.6451 L1767.3631,220.4869 L1774.7425,220.4869 L1774.7425,222.6451 L1772.2772,222.6451 L1772.2772,230.7218 L1774.7425,230.7218 L1774.7425,232.88 L1767.3631,232.88 L1767.3631,230.7218 L1769.8285,230.7218 L1769.8285,222.6451 Z " fill="#000000"/><text fill="#000000" font-family="sans-serif" font-size="14" font-style="italic" lengthAdjust="spacing" textLength="71.8457" x="1791.4354" y="231.671">ReportDao</text><line style="stroke:#181818;stroke-width:0.5;" x1="1672.91" x2="1949.3065" y1="242.38" y2="242.38"/><line style="stroke:#181818;stroke-width:0.5;" x1="1672.91" x2="1949.3065" y1="250.38" y2="250.38"/><text fill="#000000" font-family="sans-serif" font-size="14" lengthAdjust="spacing" textLength="114.5088" x="1677.91" y="267.9152">+daily(date): List</text><text fill="#000000" font-family="sans-serif" font-size="14" lengthAdjust="spacing" textLength="107.0713" x="1677.91" y="284.4034">+dentists(): List</text><text fill="#000000" font-family="sans-serif" font-size="14" lengthAdjust="spacing" textLength="126.6426" x="1677.91" y="300.8917">+treatments(): List</text><text fill="#000000" font-family="sans-serif" font-size="14" lengthAdjust="spacing" textLength="106.7295" x="1677.91" y="317.38">+revenue(): List</text><text fill="#000000" font-family="sans-serif" font-size="14" lengthAdjust="spacing" textLength="266.3965" x="1677.91" y="333.8683">+summary(today): DashboardSummary</text></g><!--reverse link Appointment to Patient--><g class="link" data-entity-1="Appointment" data-entity-2="Patient" data-source-line="93" data-uid="lnk18" id="link_Appointment_Patient"><path codeLine="93" d="M347.9082,356.1353 C337.7382,376.7853 331.95,388.52 322.05,408.61" fill="none" id="Appointment-backto-Patient" style="stroke:#181818;stroke-width:1;"/><polygon fill="#181818" points="353.21,345.37,346.9707,348.9854,347.9082,356.1353,354.1475,352.5199,353.21,345.37" style="stroke:#181818;stroke-width:1;"/><text fill="#000000" font-family="sans-serif" font-size="13" lengthAdjust="spacing" textLength="8.2202" x="341.3129" y="365.9227">1</text><text fill="#000000" font-family="sans-serif" font-size="13" lengthAdjust="spacing" textLength="8.2202" x="317.0624" y="398.1908">1</text></g><!--link Appointment to Dentist--><g class="link" data-entity-1="Appointment" data-entity-2="Dentist" data-source-line="94" data-uid="lnk19" id="link_Appointment_Dentist"><path codeLine="94" d="M421,345.37 C432.62,368.94 442.768,389.5279 453.638,411.5879" fill="none" id="Appointment-to-Dentist" style="stroke:#181818;stroke-width:1;"/><polygon fill="#181818" points="456.29,416.97,455.9,407.1289,454.08,412.4849,448.7239,410.6649,456.29,416.97" style="stroke:#181818;stroke-width:1;"/><text fill="#000000" font-family="sans-serif" font-size="13" lengthAdjust="spacing" textLength="22.7119" x="401.3972" y="365.9227">0..*</text><text fill="#000000" font-family="sans-serif" font-size="13" lengthAdjust="spacing" textLength="8.2202" x="444.2983" y="406.3781">1</text></g><!--link Appointment to Treatment--><g class="link" data-entity-1="Appointment" data-entity-2="Treatment" data-source-line="95" data-uid="lnk20" id="link_Appointment_Treatment"><path codeLine="95" d="M483.35,345.5 C510.17,364.76 539.3,385.72 566.11,405.13 C571.78,409.23 572.7962,409.9629 578.6862,414.2429" fill="none" id="Appointment-to-Treatment" style="stroke:#181818;stroke-width:1;"/><polygon fill="#181818" points="583.54,417.77,578.6106,409.2435,579.4951,414.8308,573.9079,415.7153,583.54,417.77" style="stroke:#181818;stroke-width:1;"/><text fill="#000000" font-family="sans-serif" font-size="13" lengthAdjust="spacing" textLength="22.7119" x="469.7758" y="365.7026">0..*</text><text fill="#000000" font-family="sans-serif" font-size="13" lengthAdjust="spacing" textLength="8.2202" x="567.3955" y="408.7844">1</text></g><!--link Appointment to AppointmentStatus--><g class="link" data-entity-1="Appointment" data-entity-2="AppointmentStatus" data-source-line="96" data-uid="lnk21" id="link_Appointment_AppointmentStatus"><path codeLine="96" d="M280.31,344.58 C249.83,364.06 216.62,385.38 186.11,405.13 C173.99,412.98 166.0715,418.126 153.7015,426.216" fill="none" id="Appointment-to-AppointmentStatus" style="stroke:#181818;stroke-width:1;"/><polygon fill="#181818" points="148.68,429.5,158.4016,427.9216,152.8646,426.7633,154.0228,421.2263,148.68,429.5" style="stroke:#181818;stroke-width:1;"/></g><!--link Bill to Appointment--><g class="link" data-entity-1="Bill" data-entity-2="Appointment" data-source-line="97" data-uid="lnk22" id="link_Bill_Appointment"><path codeLine="97" d="M387.11,146.46 C387.11,165.66 387.11,180.51 387.11,199.71" fill="none" id="Bill-to-Appointment" style="stroke:#181818;stroke-width:1;"/><polygon fill="#181818" points="387.11,205.71,391.11,196.71,387.11,200.71,383.11,196.71,387.11,205.71" style="stroke:#181818;stroke-width:1;"/><text fill="#000000" font-family="sans-serif" font-size="13" lengthAdjust="spacing" textLength="24.667" x="361.9613" y="166.6655">0..1</text><text fill="#000000" font-family="sans-serif" font-size="13" lengthAdjust="spacing" textLength="8.2202" x="378.7088" y="195.3134">1</text></g><!--link AuthenticationService to UserDao--><g class="link" data-entity-1="AuthenticationService" data-entity-2="UserDao" data-source-line="98" data-uid="lnk23" id="link_AuthenticationService_UserDao"><path codeLine="98" d="M883.11,109.2 C883.11,145.97 883.11,200.27 883.11,237.01" fill="none" id="AuthenticationService-to-UserDao" style="stroke:#181818;stroke-width:1;"/><polygon fill="#181818" points="883.11,243.01,887.11,234.01,883.11,238.01,879.11,234.01,883.11,243.01" style="stroke:#181818;stroke-width:1;"/></g><!--link AppointmentService to AppointmentDao--><g class="link" data-entity-1="AppointmentService" data-entity-2="AppointmentDao" data-source-line="99" data-uid="lnk24" id="link_AppointmentService_AppointmentDao"><path codeLine="99" d="M1160.48,341.32 C1147.64,361.77 1136.6498,379.2782 1123.8198,399.7182" fill="none" id="AppointmentService-to-AppointmentDao" style="stroke:#181818;stroke-width:1;"/><polygon fill="#181818" points="1120.63,404.8,1128.8026,399.3038,1123.2882,400.5651,1122.0268,395.0507,1120.63,404.8" style="stroke:#181818;stroke-width:1;"/></g><!--link AppointmentService to CatalogDao--><g class="link" data-entity-1="AppointmentService" data-entity-2="CatalogDao" data-source-line="100" data-uid="lnk25" id="link_AppointmentService_CatalogDao"><path codeLine="100" d="M1274.31,341.32 C1300.65,364.61 1325.6457,386.7049 1351.0957,409.2149" fill="none" id="AppointmentService-to-CatalogDao" style="stroke:#181818;stroke-width:1;"/><polygon fill="#181818" points="1355.59,413.19,1351.4986,404.2312,1351.8448,409.8774,1346.1985,410.2235,1355.59,413.19" style="stroke:#181818;stroke-width:1;"/></g><!--link BillingService to AppointmentService--><g class="link" data-entity-1="BillingService" data-entity-2="AppointmentService" data-source-line="101" data-uid="lnk26" id="link_BillingService_AppointmentService"><path codeLine="101" d="M1317.44,125.74 C1297.58,151.15 1276.644,177.942 1255.174,205.422" fill="none" id="BillingService-to-AppointmentService" style="stroke:#181818;stroke-width:1;"/><polygon fill="#181818" points="1251.48,210.15,1260.173,205.5206,1254.5583,206.21,1253.869,200.5953,1251.48,210.15" style="stroke:#181818;stroke-width:1;"/></g><!--link BillingService to BillDao--><g class="link" data-entity-1="BillingService" data-entity-2="BillDao" data-source-line="102" data-uid="lnk27" id="link_BillingService_BillDao"><path codeLine="102" d="M1392.78,125.74 C1418.96,159.24 1449.7353,198.6225 1474.3453,230.1125" fill="none" id="BillingService-to-BillDao" style="stroke:#181818;stroke-width:1;"/><polygon fill="#181818" points="1478.04,234.84,1475.6497,225.2856,1474.9611,230.9004,1469.3463,230.2118,1478.04,234.84" style="stroke:#181818;stroke-width:1;"/></g><!--link ReportService to ReportDao--><g class="link" data-entity-1="ReportService" data-entity-2="ReportDao" data-source-line="103" data-uid="lnk28" id="link_ReportService_ReportDao"><path codeLine="103" d="M1811.11,142.06 C1811.11,163.84 1811.11,182.14 1811.11,203.93" fill="none" id="ReportService-to-ReportDao" style="stroke:#181818;stroke-width:1;"/><polygon fill="#181818" points="1811.11,209.93,1815.11,200.93,1811.11,204.93,1807.11,200.93,1811.11,209.93" style="stroke:#181818;stroke-width:1;"/></g><!--SRC=[jLNBRjim4BphAuYSbDGEagiH190jepLWf47iz4wB6vie9QeavTGj-kzTKY_g4HqAz6HYThKxd1skzNUUvLJHb2I2QXqPe_YXCB19PBRZlu3S1P0LAOdoNFBCf92PdQ6cqEHtG4Yqsc- -hV6mYfvMw-rs7GT_0bU8l6fGvE51GI8LUtnqwPyuMn0XiwCz5vYGqHGMP8SzIop7Bzyn_mlL9nz_AuHuwkNInF0p8WSf1T2iQVnC3KUMaxr7wp6cG6iVGWqCjdagqWEe9b0tYh4Br__Gw0FYUmNK2JnPSI2PuWa2ItwC8U4f5LCjl2bEDg5jNk_o66JKOEcjJAY8yMWXmzCQskFHGjgvP34qJaDcoOMOP770X65xZzl6IpRIK16biiXCNuqZPA2GAOkCnziHROGfpCcECq7peF51dL7LaX5jGn3MffsHsghN2sVrCOaxPH8xNGWL_2X0c-kEC2L94sRkiiDOaLlDg_2CV5WZeLa2eYrpbfnPNA1DGrjYHbXfsetblSL3PngeS8Tphk3CuRqjM2KzbxYlRJVdSucYb8EhsV0B9C3pjlSBv59rvMAKYulZN1ErO4bUXnvcwbVJGP4WhYtm8LsaALKN2yMuNWwIAhOhCII2Ae9wezZUJZEcigJnnZEslBnMKs_6ZpM-vlPwQ33_MsyUlHAbZriPciynuqHrv1xiJaYSKpqX79ORcNrSCm8_4r4m5F-wVTRsLlGCeVSaFZJFPCweSVoBhIY-BddiNAhQVo5dlVlOOBFCniFbVUEHURRH_N2oFYLhf9x8aRyQXesTLdQfL3Rib2izs1JyV_upaj7Bk0dzzNnrVqLkvdFtM_sbTUDtjxStLsG-VtGfbPHJAOsUdIGR7Uvejvljz_VjzxvdnlUbpQoUJp2o1tkj9h9QkmMzlTIdMy9ZMPK_WkvoiP5cr7y1]--></g></svg>